<svg id="Layer_1" data-name="Layer 1" xmlns="http://www.w3.org/2000/svg" viewBox="0 0 1771.58 447.26"><defs><style>.cls-1{fill:#e4572e;}.cls-2,.cls-3{fill:#fff;}.cls-3{font-size:312.66px;font-family:Poppins-Medium, Poppins;font-weight:500;letter-spacing:-0.04em;}</style></defs><line class="cls-1" x1="177.09" y1="27.16" x2="297.92" y2="94.3"/><rect class="cls-1" x="411.9" y="393.83" width="40.59" height="138.23" rx="20.29" transform="translate(-369.85 203.21) rotate(-60.94)"/><line class="cls-2" x1="28.65" y1="85.86" x2="147.21" y2="14.79"/><rect class="cls-2" x="206.27" y="442.72" width="138.23" height="40.59" rx="20.29" transform="translate(-386.34 -205.19) rotate(-30.94)"/><line class="cls-2" x1="22.23" y1="244.27" x2="19.96" y2="106.06"/><rect class="cls-2" x="188.26" y="518.74" width="40.59" height="138.23" rx="20.29" transform="translate(-197.1 -409.18) rotate(-0.94)"/><line class="cls-2" x1="153.15" y1="330.8" x2="32.32" y2="263.66"/><rect class="cls-2" x="259.89" y="640.8" width="40.59" height="138.23" rx="20.29" transform="translate(-663.91 197.35) rotate(-60.94)"/><line class="cls-2" x1="308.4" y1="259.39" x2="189.84" y2="330.47"/><rect class="cls-2" x="367.46" y="687.33" width="138.23" height="40.59" rx="20.29" transform="translate(-489.17 -87.5) rotate(-30.94)"/><line class="cls-2" x1="312.63" y1="101.97" x2="314.88" y2="238.51"/><rect class="cls-2" x="480.92" y="514.65" width="40.59" height="136.55" rx="20.29" transform="translate(-196.98 -404.37) rotate(-0.94)"/><text class="cls-3" transform="translate(379.63 265.29)">create QE</text></svg>