<svg id="Layer_1" data-name="Layer 1" xmlns="http://www.w3.org/2000/svg" viewBox="0 0 334.84 336.31"><defs><style>.cls-1{fill:#e4572e;}.cls-2{fill:#fff;}</style></defs><line class="cls-1" x1="177.09" y1="22.23" x2="297.92" y2="89.37"/><rect class="cls-1" x="981.23" y="85.88" width="40.59" height="138.23" rx="20.29" transform="translate(-377.17 845.52) rotate(-60.94)"/><line class="cls-2" x1="28.65" y1="80.94" x2="147.21" y2="9.86"/><rect x="775.6" y="134.77" width="138.23" height="40.59" rx="20.29" transform="translate(-716.3 346.74) rotate(-30.94)"/><line class="cls-2" x1="22.23" y1="239.34" x2="19.96" y2="101.13"/><rect x="757.59" y="210.79" width="40.59" height="138.23" rx="20.29" transform="translate(-761.29 -96.83) rotate(-0.94)"/><line class="cls-2" x1="153.15" y1="325.87" x2="32.32" y2="258.73"/><rect x="829.22" y="332.86" width="40.59" height="138.23" rx="20.29" transform="translate(-671.24 839.66) rotate(-60.94)"/><line class="cls-2" x1="308.4" y1="254.47" x2="189.84" y2="325.54"/><rect x="936.79" y="379.38" width="138.23" height="40.59" rx="20.29" transform="translate(-819.13 464.44) rotate(-30.94)"/><line class="cls-2" x1="312.63" y1="97.05" x2="314.88" y2="233.58"/><rect x="1050.25" y="206.7" width="40.59" height="136.55" rx="20.29" transform="matrix(1, -0.02, 0.02, 1, -761.17, -92.02)"/></svg>